<?xml version="1.0" standalone="no"?><!DOCTYPE svg PUBLIC "-//W3C//DTD SVG 1.1//EN" "http://www.w3.org/Graphics/SVG/1.1/DTD/svg11.dtd"><svg t="1565764173250" class="icon" viewBox="0 0 1024 1024" version="1.1" xmlns="http://www.w3.org/2000/svg" p-id="2815" xmlns:xlink="http://www.w3.org/1999/xlink" width="256" height="256"><defs><style type="text/css"></style></defs><path d="M848.2 713.5c8-0.2 16.1 1.4 23.8 6.4-27.9-17.9-46.3-49.1-46.3-84.8V435.9c0-145.9-105.5-267.7-246.5-297.7v-7.1c0-37.2-30.1-67.2-67.2-67.2s-67.2 30.1-67.2 67.2v7.1c-141 30-246.5 151.6-246.5 297.7v199.2c0 35.7-18.5 66.9-46.3 84.8 7.8-5.1 15.7-6.8 23.8-6.4-24.7 0.1-44.7 20-44.7 44.8s20 44.8 44.8 44.8H848c24.8 0 44.8-20 44.8-44.8 0-24.6-19.9-44.7-44.6-44.8zM512.2 960c61.9 0 112-50.2 112-112H400.1c0 61.8 50.1 112 112.1 112z" p-id="2816"></path></svg>